<svg viewBox="0 0 100 100" xmlns="http://www.w3.org/2000/svg" xmlns:xlink="http://www.w3.org/1999/xlink" width="100.000000" height="100.000000" fill="none">
	<defs>
		<linearGradient id="paint_linear_0" x1="1.14440918e-05" x2="99.9999695" y1="-7.62939453e-06" y2="100.000008" gradientUnits="userSpaceOnUse">
			<stop stop-color="rgb(0,81,255)" offset="0" stop-opacity="1" />
			<stop stop-color="rgb(255,0,166)" offset="0.5" stop-opacity="1" />
			<stop stop-color="rgb(226,255,0)" offset="1" stop-opacity="1" />
		</linearGradient>
		<linearGradient id="paint_linear_1" x1="29.4337177" x2="29.4337177" y1="27.7732315" y2="72.1684113" gradientUnits="userSpaceOnUse">
			<stop stop-color="rgb(0,17,73)" offset="0" stop-opacity="1" />
			<stop stop-color="rgb(0,46,46)" offset="1" stop-opacity="1" />
		</linearGradient>
		<linearGradient id="paint_linear_2" x1="71.3684235" x2="71.3684235" y1="27" y2="73" gradientUnits="userSpaceOnUse">
			<stop stop-color="rgb(0,17,73)" offset="0" stop-opacity="1" />
			<stop stop-color="rgb(0,46,46)" offset="1" stop-opacity="1" />
		</linearGradient>
	</defs>
	<rect id="Logo" width="100.000000" height="100.000000" x="0.000000" y="0.000000" />
	<path id="星形 1" d="M67.5371 32.0654C67.6289 32.2332 67.7669 32.3711 67.9346 32.4629L98.3958 49.1227C99.0894 49.502 99.0894 50.498 98.3958 50.8774L67.9346 67.5371C67.7668 67.6289 67.6289 67.7669 67.5371 67.9346L50.8773 98.3958C50.498 99.0894 49.502 99.0894 49.1226 98.3958L32.4629 67.9346C32.3711 67.7668 32.2331 67.6289 32.0654 67.5371L1.60418 50.8774C0.910636 50.498 0.910636 49.502 1.60418 49.1226L32.0654 32.4629C32.2332 32.3711 32.3711 32.2331 32.4629 32.0654L49.1226 1.60418C49.502 0.910635 50.498 0.910635 50.8774 1.60418L67.5371 32.0654Z" fill="url(#paint_linear_0)" fill-rule="evenodd" />
	<g id="NS">
		<path id="矢量 1" d="M12 28.7732L12 71.1684C12 71.7207 12.4477 72.1684 13 72.1684L20.3608 72.1684C20.9131 72.1684 21.3608 71.7207 21.3608 71.1684L21.3608 55.916C21.3608 53.2802 21.2038 50.5714 20.8898 47.7897C20.5934 45.0788 20.3342 42.5388 20.1123 40.1698C20.1123 40.0703 20.1813 39.9845 20.2811 39.9845C20.3471 39.9845 20.4072 40.0228 20.4349 40.0827L24.849 49.5988L36.5623 71.6377C36.7359 71.9643 37.0755 72.1684 37.4453 72.1684L45.8674 72.1684C46.4197 72.1684 46.8674 71.7207 46.8674 71.1684L46.8674 28.7732C46.8674 28.2209 46.4197 27.7732 45.8674 27.7732L38.5214 27.7732C37.9691 27.7732 37.5214 28.2209 37.5214 28.7732L37.5214 43.9819C37.5214 46.5788 37.6735 49.3119 37.9776 52.1811C38.2829 54.9608 38.5649 57.4877 38.8238 59.7619C38.8356 59.866 38.7542 59.9572 38.6494 59.9572C38.5809 59.9572 38.5186 59.9172 38.49 59.8549L34.0773 50.2407L22.306 28.3005C22.1318 27.9758 21.7932 27.7732 21.4248 27.7732L13 27.7732C12.4477 27.7732 12 28.2209 12 28.7732Z" fill="url(#paint_linear_1)" fill-rule="evenodd" />
		<path id="矢量 2" d="M69.5549 72.9396C70.1236 72.9799 70.6938 73 71.2654 73C74.7879 73 77.7954 72.3678 80.2877 71.1034C82.6527 69.9082 84.4874 68.3568 85.7917 66.449C85.8672 66.3385 85.941 66.2268 86.013 66.1139C86.6953 65.0468 87.2019 63.9307 87.5328 62.7656C87.8443 61.6686 88 60.5283 88 59.3444C88 57.2241 87.6369 55.4053 86.9108 53.888C86.6162 53.2598 86.2692 52.6686 85.8698 52.1145C85.2986 51.3217 84.6202 50.6047 83.8347 49.9635C82.5003 48.8645 80.9205 47.9551 79.0955 47.2353L73.3701 44.9302C72.0749 44.4245 70.9122 43.943 69.8819 43.4859C68.8614 43.019 68.0421 42.4744 67.4239 41.8519C67.2103 41.6333 67.0342 41.395 66.8956 41.1369C66.6395 40.6598 66.5114 40.1152 66.5114 39.503C66.5114 38.8029 66.6615 38.1855 66.9616 37.651C67.2202 37.1905 67.5902 36.7914 68.0715 36.4539C69.1214 35.7244 70.5491 35.3597 72.3545 35.3597C74.1698 35.3597 75.8182 35.666 77.2999 36.2788C78.5217 36.7728 79.7305 37.4464 80.926 38.2995C81.3711 38.6171 81.9911 38.5484 82.3344 38.1228L86.0836 33.4745C86.4037 33.0777 86.3759 32.5014 86.0003 32.1567C85.2905 31.5055 84.5392 30.9152 83.7465 30.3859C82.6015 29.6213 81.37 28.9838 80.0522 28.4735C78.255 27.7707 76.4302 27.3193 74.5778 27.1193C73.8411 27.0398 73.1 27 72.3545 27C69.2637 27 66.5261 27.5787 64.1418 28.7361C62.1298 29.7128 60.4846 30.9838 59.2062 32.5491C58.9696 32.8388 58.7456 33.1386 58.5341 33.4485C57.9904 34.2412 57.5559 35.074 57.2305 35.9468C56.7455 37.2476 56.503 38.6373 56.503 40.1158C56.503 42.2653 56.9397 44.123 57.813 45.6889C58.4315 46.798 59.1781 47.7779 60.0526 48.6285C60.4128 48.9787 60.7946 49.307 61.1981 49.6134C62.5915 50.6638 64.0535 51.5051 65.5842 52.1373L71.4126 54.5883C72.7274 55.1233 73.8705 55.629 74.8419 56.1056C75.8133 56.5725 76.5689 57.1074 77.1085 57.7104C77.1846 57.794 77.2555 57.8812 77.321 57.9722C77.7288 58.5381 77.9327 59.2484 77.9327 60.1031C77.9327 60.814 77.787 61.4506 77.4955 62.0131C77.2286 62.5279 76.8396 62.9806 76.3285 63.3711C75.2687 64.1783 73.6497 64.582 71.4715 64.582C69.6071 64.582 67.684 64.1492 65.7019 63.2835C64.2862 62.6652 62.9755 61.908 61.77 61.0118C61.5639 60.8585 61.3609 60.7012 61.1609 60.5399C60.7209 60.1849 60.0726 60.2284 59.709 60.6613L55.3495 65.8514C55.0064 66.2598 55.0428 66.8674 55.448 67.2142C56.3158 67.9571 57.2282 68.6308 58.185 69.2352C59.5241 70.0811 60.9504 70.7913 62.4639 71.366C64.802 72.2459 67.1657 72.7704 69.5549 72.9396Z" fill="url(#paint_linear_2)" fill-rule="evenodd" />
	</g>
</svg>
